STARTFONT 2.1
COMMENT the Lisp Machine name for this font was "25vgb.ast"
FONT vgb-25.bdf
SIZE 24 75 75
FONTBOUNDINGBOX 23 20 0 0
STARTPROPERTIES 3
FONT_DESCENT 5
FONT_ASCENT 20
COPYRIGHT "Public domain font.  Share and enjoy."
ENDPROPERTIES
CHARS 121
STARTCHAR C001
ENCODING 1
SWIDTH 625 0
DWIDTH 15 0
BBX 15 25 0 -5
BITMAP
0700
0700
0700
0700
0700
0700
0700
0700
0700
0700
0700
0700
0700
c718
e738
7770
3fe0
1fc0
0f80
0700
0000
0000
0000
0000
0000
ENDCHAR
STARTCHAR C002
ENCODING 2
SWIDTH 916 0
DWIDTH 22 0
BBX 22 25 0 -5
BITMAP
000000
000000
000000
000000
000000
000000
000060
0000e0
0001c0
000380
1e0780
3f0f00
7fde00
f1fc00
e0f800
e0f000
f1f800
7fde70
3f8fe0
1e07c0
000000
000000
000000
000000
000000
ENDCHAR
STARTCHAR C003
ENCODING 3
SWIDTH 833 0
DWIDTH 20 0
BBX 20 25 0 -5
BITMAP
000000
000f00
001f80
003fc0
0079c0
00f1c0
00e380
01c780
01c700
038e00
039c00
071e00
071f00
0e0f80
0e0780
1c0380
1dc780
39ff80
39ff00
30fe00
700000
700000
600000
600000
e00000
ENDCHAR
STARTCHAR C004
ENCODING 4
SWIDTH 708 0
DWIDTH 17 0
BBX 17 25 0 -5
BITMAP
0000
0000
0000
0000
0000
0100
0380
07c0
07c0
0ee0
0ee0
1c70
1c70
3838
3838
701c
701c
e00e
e00e
0000
0000
0000
0000
0000
0000
ENDCHAR
STARTCHAR C005
ENCODING 5
SWIDTH 500 0
DWIDTH 12 0
BBX 12 25 0 -5
BITMAP
0000
0000
0000
0000
0000
0000
0000
0000
0000
0000
ffc0
ffc0
ffc0
01c0
01c0
01c0
0000
0000
0000
0000
0000
0000
0000
0000
0000
ENDCHAR
STARTCHAR C006
ENCODING 6
SWIDTH 500 0
DWIDTH 12 0
BBX 12 25 0 -5
BITMAP
0000
0000
0000
0380
0780
0e00
1c00
3800
7000
7000
ff80
ff80
f000
7000
7800
3c00
1e00
0f80
0380
0000
0000
0000
0000
0000
0000
ENDCHAR
STARTCHAR C007
ENCODING 7
SWIDTH 666 0
DWIDTH 16 0
BBX 16 25 0 -5
BITMAP
0000
0000
0000
0000
0000
0000
0000
ffc0
fff8
fffc
38e0
38e0
38e0
38e0
38e0
38e0
38e0
38e0
f8e0
f8fc
007c
0000
0000
0000
0000
ENDCHAR
STARTCHAR C010
ENCODING 8
SWIDTH 625 0
DWIDTH 15 0
BBX 15 25 0 -5
BITMAP
0000
0000
c000
f000
7800
7800
1c00
0c00
0e00
0600
0600
0f00
1f00
3b80
3380
71c0
e1c0
e0e0
c078
0038
0000
0000
0000
0000
0000
ENDCHAR
STARTCHAR C013
ENCODING 11
SWIDTH 541 0
DWIDTH 13 0
BBX 13 25 0 -5
BITMAP
0000
0e00
1f00
3f80
7fc0
eee0
ce60
0e00
0e00
0e00
0e00
0e00
0e00
0e00
0e00
0e00
0e00
0e00
0e00
0e00
0000
0000
0000
0000
0000
ENDCHAR
STARTCHAR C016
ENCODING 14
SWIDTH 958 0
DWIDTH 23 0
BBX 23 25 0 -5
BITMAP
000000
000000
000000
000000
000000
000000
1f07c0
3f8fe0
7fdff0
f1fc78
e0f838
e07038
e07038
e0f838
f1fc78
7fdff0
3fdfe0
1f07c0
000000
000000
000000
000000
000000
000000
000000
ENDCHAR
STARTCHAR C017
ENCODING 15
SWIDTH 625 0
DWIDTH 15 0
BBX 15 25 0 -5
BITMAP
1c00
1e00
0f00
0780
03c0
01e0
00f0
0070
0078
1f38
3ff8
7ff8
7078
e038
e038
e038
7078
7ff0
3fe0
1fc0
0000
0000
0000
0000
0000
ENDCHAR
STARTCHAR C020
ENCODING 16
SWIDTH 750 0
DWIDTH 18 0
BBX 18 25 0 -5
BITMAP
0000
0000
0000
0000
0000
0000
1ffe
3ffe
7ffe
f000
e000
e000
e000
f000
7ffe
3ffe
1ffe
0000
0000
0000
0000
0000
0000
0000
0000
ENDCHAR
STARTCHAR C021
ENCODING 17
SWIDTH 750 0
DWIDTH 18 0
BBX 18 25 0 -5
BITMAP
0000
0000
0000
0000
0000
0000
fff0
fff8
fffc
001e
000e
000e
000e
001e
fffc
fff8
fff0
0000
0000
0000
0000
0000
0000
0000
0000
ENDCHAR
STARTCHAR C022
ENCODING 18
SWIDTH 625 0
DWIDTH 15 0
BBX 15 25 0 -5
BITMAP
0000
1f80
3fc0
7fe0
f9f0
f0f0
e070
e070
e070
e070
e070
e070
e070
e070
e070
e070
e070
e070
e070
e070
0000
0000
0000
0000
0000
ENDCHAR
STARTCHAR C023
ENCODING 19
SWIDTH 625 0
DWIDTH 15 0
BBX 15 25 0 -5
BITMAP
0000
e070
e070
e070
e070
e070
e070
e070
e070
e070
e070
e070
e070
e070
e070
f0f0
f9f0
7fe0
3fc0
1f80
0000
0000
0000
0000
0000
ENDCHAR
STARTCHAR C024
ENCODING 20
SWIDTH 708 0
DWIDTH 17 0
BBX 17 25 0 -5
BITMAP
0000
e00e
e00e
701c
701c
3018
3ff8
3ff8
1830
1830
1c70
0c60
0c60
0ee0
06c0
06c0
07c0
0380
0380
0100
0000
0000
0000
0000
0000
ENDCHAR
STARTCHAR C025
ENCODING 21
SWIDTH 625 0
DWIDTH 15 0
BBX 15 25 0 -5
BITMAP
0000
fff8
fff8
fff8
0038
0038
0038
0038
0038
03f8
03f8
03f8
0038
0038
0038
0038
0038
fff8
fff8
fff8
0000
0000
0000
0000
0000
ENDCHAR
STARTCHAR C026
ENCODING 22
SWIDTH 750 0
DWIDTH 18 0
BBX 18 25 0 -5
BITMAP
0000
0000
0000
0000
0ff0
1ff8
3c3c
781e
fc3f
ee77
c7e3
c3c3
c3c3
c7e3
ee77
fc3f
781e
3c3c
1ff8
0ff0
0000
0000
0000
0000
0000
ENDCHAR
STARTCHAR C027
ENCODING 23
SWIDTH 708 0
DWIDTH 17 0
BBX 17 25 0 -5
BITMAP
0000
0000
0000
0000
0000
0000
0000
0c60
1c70
3838
701c
fffe
fffe
fffe
701c
3838
1c70
0c60
0000
0000
0000
0000
0000
0000
0000
ENDCHAR
STARTCHAR C030
ENCODING 24
SWIDTH 750 0
DWIDTH 18 0
BBX 18 25 0 -5
BITMAP
0000
0000
0000
0000
0000
0c00
1c00
3800
7000
fffe
fffe
fffe
7000
3800
1c00
0c00
0000
0000
0000
0000
0000
0000
0000
0000
0000
ENDCHAR
STARTCHAR C031
ENCODING 25
SWIDTH 916 0
DWIDTH 22 0
BBX 22 25 0 -5
BITMAP
000000
000000
000000
000000
000000
000600
000700
000380
0001c0
0000e0
fffff0
fffff0
fffff0
0000e0
0001c0
000380
000700
000600
000000
000000
000000
000000
000000
000000
000000
ENDCHAR
STARTCHAR C032
ENCODING 26
SWIDTH 625 0
DWIDTH 15 0
BBX 15 25 0 -5
BITMAP
0000
0038
0038
0078
0070
00f0
00e0
01e0
01c0
3ff0
3ff0
3ff0
0700
3ff0
3ff0
3ff0
1c00
1c00
3800
3800
7000
7000
e000
e000
0000
ENDCHAR
STARTCHAR C033
ENCODING 27
SWIDTH 666 0
DWIDTH 16 0
BBX 16 25 0 -5
BITMAP
0000
0000
0000
0000
0000
0000
0000
0000
1c0c
3e0c
7f1c
7fb8
f7f8
e3f0
c1e0
0000
0000
0000
0000
0000
0000
0000
0000
0000
0000
ENDCHAR
STARTCHAR C034
ENCODING 28
SWIDTH 500 0
DWIDTH 12 0
BBX 12 25 0 -5
BITMAP
0000
00c0
01c0
03c0
0780
0f00
1e00
3c00
7800
f000
7800
3c00
1e00
0f00
0780
03c0
01c0
00c0
0000
0000
ffc0
ffc0
ffc0
0000
0000
ENDCHAR
STARTCHAR C035
ENCODING 29
SWIDTH 500 0
DWIDTH 12 0
BBX 12 25 0 -5
BITMAP
0000
c000
e000
f000
7800
3c00
1e00
0f00
0780
03c0
0780
0f00
1e00
3c00
7800
f000
e000
c000
0000
0000
ffc0
ffc0
ffc0
0000
0000
ENDCHAR
STARTCHAR C036
ENCODING 30
SWIDTH 500 0
DWIDTH 12 0
BBX 12 25 0 -5
BITMAP
0000
0000
0000
0000
0000
0000
ffc0
ffc0
0000
0000
ffc0
ffc0
0000
0000
ffc0
ffc0
0000
0000
0000
0000
0000
0000
0000
0000
0000
ENDCHAR
STARTCHAR C037
ENCODING 31
SWIDTH 708 0
DWIDTH 17 0
BBX 17 25 0 -5
BITMAP
0000
0000
0000
0000
0000
0000
e00e
e00e
701c
701c
3838
3838
1c70
1c70
0ee0
0ee0
07c0
07c0
0380
0100
0000
0000
0000
0000
0000
ENDCHAR
STARTCHAR C040
ENCODING 32
SWIDTH 416 0
DWIDTH 10 0
BBX 10 25 0 -5
BITMAP
00
00
00
00
00
00
00
00
00
00
00
00
00
00
00
00
00
00
00
00
00
00
00
00
00
ENDCHAR
STARTCHAR !
ENCODING 33
SWIDTH 333 0
DWIDTH 8 0
BBX 8 25 0 -5
BITMAP
00
f0
f0
f0
f0
f0
f0
f0
f0
f0
f0
f0
f0
60
00
00
f0
f0
f0
f0
00
00
00
00
00
ENDCHAR
STARTCHAR "
ENCODING 34
SWIDTH 541 0
DWIDTH 13 0
BBX 13 25 0 -5
BITMAP
f3c0
f3c0
f3c0
f3c0
f3c0
f3c0
6180
0000
0000
0000
0000
0000
0000
0000
0000
0000
0000
0000
0000
0000
0000
0000
0000
0000
0000
ENDCHAR
STARTCHAR #
ENCODING 35
SWIDTH 583 0
DWIDTH 14 0
BBX 14 25 0 -5
BITMAP
0000
0000
0000
0000
39c0
39c0
39c0
fff0
fff0
fff0
39c0
39c0
fff0
fff0
fff0
39c0
39c0
0000
0000
0000
0000
0000
0000
0000
0000
ENDCHAR
STARTCHAR $
ENCODING 36
SWIDTH 541 0
DWIDTH 13 0
BBX 13 25 0 -5
BITMAP
0d80
0d80
0f80
3fc0
7fe0
7de0
6de0
6de0
7d80
7d80
7f80
3f80
1fc0
0fe0
6de0
6de0
fde0
7de0
7fe0
3fc0
0f80
0d80
0d80
0000
0000
ENDCHAR
STARTCHAR %
ENCODING 37
SWIDTH 625 0
DWIDTH 15 0
BBX 15 25 0 -5
BITMAP
0000
03f8
07f0
7e70
fce0
d8e0
f9c0
71c0
0380
0380
0700
0700
0e00
0e00
1c00
1c70
38f8
38d8
30f8
3070
0000
0000
0000
0000
0000
ENDCHAR
STARTCHAR &
ENCODING 38
SWIDTH 791 0
DWIDTH 19 0
BBX 19 25 0 -5
BITMAP
000000
03c000
0ff000
0ef800
1c7800
1c7800
1ef000
0fe000
0fc000
0f9f80
3f1f80
7f8600
7bc600
f1ce00
f1ec00
f0ec00
f8f800
f8fc00
7fff00
3fcf00
0f8000
000000
000000
000000
000000
ENDCHAR
STARTCHAR '
ENCODING 39
SWIDTH 291 0
DWIDTH 7 0
BBX 7 25 0 -5
BITMAP
f0
f0
f0
f0
70
70
60
e0
c0
00
00
00
00
00
00
00
00
00
00
00
00
00
00
00
00
ENDCHAR
STARTCHAR (
ENCODING 40
SWIDTH 416 0
DWIDTH 10 0
BBX 10 25 0 -5
BITMAP
0c
1c
3c
38
78
70
70
f0
e0
e0
e0
e0
e0
e0
e0
f0
70
78
78
3c
3c
1c
0c
00
00
ENDCHAR
STARTCHAR )
ENCODING 41
SWIDTH 416 0
DWIDTH 10 0
BBX 10 25 0 -5
BITMAP
c0
e0
f0
f0
78
78
38
3c
1c
1c
1c
1c
1c
1c
1c
3c
38
38
78
70
f0
e0
c0
00
00
ENDCHAR
STARTCHAR *
ENCODING 42
SWIDTH 708 0
DWIDTH 17 0
BBX 17 25 0 -5
BITMAP
0000
0000
0000
0000
0780
0780
e79c
f33c
f33c
7ff8
1fe0
0fc0
1fe0
7ff8
f33c
f33c
e79c
0780
0780
0000
0000
0000
0000
0000
0000
ENDCHAR
STARTCHAR +
ENCODING 43
SWIDTH 500 0
DWIDTH 12 0
BBX 12 25 0 -5
BITMAP
0000
0000
0000
0000
0000
0000
0000
1c00
1c00
1c00
ff80
ff80
ff80
1c00
1c00
1c00
0000
0000
0000
0000
0000
0000
0000
0000
0000
ENDCHAR
STARTCHAR ,
ENCODING 44
SWIDTH 291 0
DWIDTH 7 0
BBX 7 25 0 -5
BITMAP
00
00
00
00
00
00
00
00
00
00
00
00
00
00
00
00
f0
f0
f0
f0
70
70
60
e0
c0
ENDCHAR
STARTCHAR -
ENCODING 45
SWIDTH 541 0
DWIDTH 13 0
BBX 13 25 0 -5
BITMAP
0000
0000
0000
0000
0000
0000
0000
0000
0000
ffc0
ffc0
ffc0
ffc0
0000
0000
0000
0000
0000
0000
0000
0000
0000
0000
0000
0000
ENDCHAR
STARTCHAR .
ENCODING 46
SWIDTH 250 0
DWIDTH 6 0
BBX 6 25 0 -5
BITMAP
00
00
00
00
00
00
00
00
00
00
00
00
00
00
00
00
00
e0
e0
e0
00
00
00
00
00
ENDCHAR
STARTCHAR /
ENCODING 47
SWIDTH 583 0
DWIDTH 14 0
BBX 14 25 0 -5
BITMAP
00e0
01e0
01c0
01c0
03c0
0380
0380
0780
0700
0700
0f00
0e00
0e00
1e00
1c00
1c00
3c00
3800
3800
7800
7000
7000
f000
e000
e000
ENDCHAR
STARTCHAR 0
ENCODING 48
SWIDTH 666 0
DWIDTH 16 0
BBX 16 25 0 -5
BITMAP
0000
0f80
1fc0
3fe0
7df0
78f0
f078
e038
e038
e038
e038
e038
e038
e038
f078
78f0
7df0
3fe0
1fc0
0f80
0000
0000
0000
0000
0000
ENDCHAR
STARTCHAR 1
ENCODING 49
SWIDTH 666 0
DWIDTH 16 0
BBX 16 25 0 -5
BITMAP
00
38
78
f8
38
38
38
38
38
38
38
38
38
38
38
38
38
38
fe
fe
00
00
00
00
00
ENDCHAR
STARTCHAR 2
ENCODING 50
SWIDTH 666 0
DWIDTH 16 0
BBX 16 25 0 -5
BITMAP
0000
0f00
3fc0
7fe0
f0f0
e070
e070
0070
00f0
01e0
03c0
0780
0f00
1e00
3c00
7800
7000
fff0
fff0
fff0
0000
0000
0000
0000
0000
ENDCHAR
STARTCHAR 3
ENCODING 51
SWIDTH 666 0
DWIDTH 16 0
BBX 16 25 0 -5
BITMAP
0000
1fc0
3fe0
7ff0
f078
e038
0038
0078
00f0
07e0
07c0
07e0
00f0
0078
0038
e038
f078
7ff0
3fe0
1fc0
0000
0000
0000
0000
0000
ENDCHAR
STARTCHAR 4
ENCODING 52
SWIDTH 666 0
DWIDTH 16 0
BBX 16 25 0 -5
BITMAP
0000
01f0
03f0
03f0
07f0
0770
0f70
0e70
1e70
1c70
3c70
3870
7ffc
7ffc
fffc
0070
0070
0070
0070
0070
0000
0000
0000
0000
0000
ENDCHAR
STARTCHAR 5
ENCODING 53
SWIDTH 666 0
DWIDTH 16 0
BBX 16 25 0 -5
BITMAP
0000
ffe0
ffe0
ffe0
e000
e000
e000
ef80
ffc0
ffe0
f8e0
e070
0070
0070
0070
0070
e0f0
ffe0
7fc0
3f80
0000
0000
0000
0000
0000
ENDCHAR
STARTCHAR 6
ENCODING 54
SWIDTH 666 0
DWIDTH 16 0
BBX 16 25 0 -5
BITMAP
0000
0fc0
1ff0
3ff0
3c70
7800
7000
f000
e780
efe0
fff0
fcf0
f878
f038
f038
f878
7cf0
7ff0
3fe0
0fc0
0000
0000
0000
0000
0000
ENDCHAR
STARTCHAR 7
ENCODING 55
SWIDTH 666 0
DWIDTH 16 0
BBX 16 25 0 -5
BITMAP
0000
fff0
fff0
fff0
00e0
00e0
01c0
01c0
0380
0380
0700
0700
0e00
0e00
1c00
1c00
3800
3800
7000
7000
0000
0000
0000
0000
0000
ENDCHAR
STARTCHAR 8
ENCODING 56
SWIDTH 666 0
DWIDTH 16 0
BBX 16 25 0 -5
BITMAP
0000
0f80
3fe0
3fe0
78f0
7070
7070
38e0
3fe0
1fc0
0f80
1fc0
7ff0
78f0
f078
e038
f078
78f0
7ff0
1fc0
0000
0000
0000
0000
0000
ENDCHAR
STARTCHAR 9
ENCODING 57
SWIDTH 666 0
DWIDTH 16 0
BBX 16 25 0 -5
BITMAP
0000
1f80
3fc0
7fe0
70e0
e070
e070
e070
e070
70f0
7ff0
3ff0
0f70
0070
00f0
00e0
f1e0
ffc0
7f80
1f00
0000
0000
0000
0000
0000
ENDCHAR
STARTCHAR :
ENCODING 58
SWIDTH 375 0
DWIDTH 9 0
BBX 9 25 0 -5
BITMAP
00
00
00
00
00
00
00
30
78
fc
fc
78
00
00
00
30
78
fc
fc
78
00
00
00
00
00
ENDCHAR
STARTCHAR ;
ENCODING 59
SWIDTH 375 0
DWIDTH 9 0
BBX 9 25 0 -5
BITMAP
00
00
00
00
00
00
00
00
30
78
fc
fc
78
00
00
00
38
fc
fc
cc
0c
1c
38
70
60
ENDCHAR
STARTCHAR <
ENCODING 60
SWIDTH 500 0
DWIDTH 12 0
BBX 12 25 0 -5
BITMAP
0000
0000
0000
00c0
01c0
0380
0700
0e00
1c00
3800
7000
e000
7000
3800
1c00
0e00
0700
0380
01c0
00c0
0000
0000
0000
0000
0000
ENDCHAR
STARTCHAR =
ENCODING 61
SWIDTH 500 0
DWIDTH 12 0
BBX 12 25 0 -5
BITMAP
0000
0000
0000
0000
0000
0000
0000
0000
ffc0
ffc0
ffc0
0000
0000
ffc0
ffc0
ffc0
0000
0000
0000
0000
0000
0000
0000
0000
0000
ENDCHAR
STARTCHAR >
ENCODING 62
SWIDTH 500 0
DWIDTH 12 0
BBX 12 25 0 -5
BITMAP
0000
0000
0000
c000
e000
7000
3800
1c00
0e00
0700
0380
01c0
0380
0700
0e00
1c00
3800
7000
e000
c000
0000
0000
0000
0000
0000
ENDCHAR
STARTCHAR ?
ENCODING 63
SWIDTH 500 0
DWIDTH 12 0
BBX 12 25 0 -5
BITMAP
0000
3e00
7f80
e3c0
f1c0
f3c0
63c0
0780
0f00
1e00
1c00
1800
1800
1800
1800
0000
0000
3c00
3c00
3c00
0000
0000
0000
0000
0000
ENDCHAR
STARTCHAR @
ENCODING 64
SWIDTH 833 0
DWIDTH 20 0
BBX 20 25 0 -5
BITMAP
000000
000000
000000
000000
000000
0ffc00
3ffe00
7fff00
600f00
67c780
cfe380
def380
dc7380
dc7380
dc7780
de7f00
dfff00
cffe00
e00000
7fff80
3fff80
000000
000000
000000
000000
ENDCHAR
STARTCHAR A
ENCODING 65
SWIDTH 791 0
DWIDTH 19 0
BBX 19 25 0 -5
BITMAP
000000
03e000
03e000
03e000
077000
077000
077800
0e3800
0e3800
0e3800
1c1c00
1c1c00
1ffc00
3ffe00
3ffe00
380e00
700700
700700
f00780
e00380
000000
000000
000000
000000
000000
ENDCHAR
STARTCHAR B
ENCODING 66
SWIDTH 750 0
DWIDTH 18 0
BBX 18 25 0 -5
BITMAP
0000
ffe0
fff8
fffc
e07c
e01c
e01c
e01c
e07c
fff8
ffe0
fff8
e07c
e03c
e01c
e01c
e07c
fffc
fff8
ffe0
0000
0000
0000
0000
0000
ENDCHAR
STARTCHAR C
ENCODING 67
SWIDTH 708 0
DWIDTH 17 0
BBX 17 25 0 -5
BITMAP
0000
0ff0
1ff8
3ffc
783e
700e
f00e
e000
e000
e000
e000
e000
e000
e000
f00e
700e
781e
3ffc
1ff8
0ff0
0000
0000
0000
0000
0000
ENDCHAR
STARTCHAR D
ENCODING 68
SWIDTH 708 0
DWIDTH 17 0
BBX 17 25 0 -5
BITMAP
0000
ffc0
ffe0
fff8
e0f8
e03c
e01c
e01c
e01c
e01c
e01c
e01c
e01c
e01c
e01c
e03c
e0f8
fff8
ffe0
ffc0
0000
0000
0000
0000
0000
ENDCHAR
STARTCHAR E
ENCODING 69
SWIDTH 625 0
DWIDTH 15 0
BBX 15 25 0 -5
BITMAP
0000
fff0
fff0
fff0
e000
e000
e000
e000
e000
ff80
ff80
ff80
e000
e000
e000
e000
e000
fff0
fff0
fff0
0000
0000
0000
0000
0000
ENDCHAR
STARTCHAR F
ENCODING 70
SWIDTH 625 0
DWIDTH 15 0
BBX 15 25 0 -5
BITMAP
0000
fff0
fff0
fff0
e000
e000
e000
e000
e000
ff80
ff80
ff80
e000
e000
e000
e000
e000
e000
e000
e000
0000
0000
0000
0000
0000
ENDCHAR
STARTCHAR G
ENCODING 71
SWIDTH 750 0
DWIDTH 18 0
BBX 18 25 0 -5
BITMAP
0000
1ff0
3ff8
7ffc
783e
f01e
e00e
e000
e000
e000
e000
e0fe
e0fe
e0fe
e00e
f01e
783e
7ffe
3ff6
1fe6
0000
0000
0000
0000
0000
ENDCHAR
STARTCHAR H
ENCODING 72
SWIDTH 666 0
DWIDTH 16 0
BBX 16 25 0 -5
BITMAP
0000
e038
e038
e038
e038
e038
e038
e038
e038
fff8
fff8
fff8
e038
e038
e038
e038
e038
e038
e038
e038
0000
0000
0000
0000
0000
ENDCHAR
STARTCHAR I
ENCODING 73
SWIDTH 291 0
DWIDTH 7 0
BBX 7 25 0 -5
BITMAP
00
e0
e0
e0
e0
e0
e0
e0
e0
e0
e0
e0
e0
e0
e0
e0
e0
e0
e0
e0
00
00
00
00
00
ENDCHAR
STARTCHAR J
ENCODING 74
SWIDTH 500 0
DWIDTH 12 0
BBX 12 25 0 -5
BITMAP
0000
01c0
01c0
01c0
01c0
01c0
01c0
01c0
01c0
01c0
01c0
01c0
01c0
01c0
01c0
01c0
e3c0
ffc0
7f80
3f00
0000
0000
0000
0000
0000
ENDCHAR
STARTCHAR K
ENCODING 75
SWIDTH 666 0
DWIDTH 16 0
BBX 16 25 0 -5
BITMAP
0000
e038
e078
e0f0
e1e0
e3c0
e780
ef00
fe00
fc00
fc00
fe00
ef00
e780
e3c0
e1e0
e0f0
e078
e038
e018
0000
0000
0000
0000
0000
ENDCHAR
STARTCHAR L
ENCODING 76
SWIDTH 583 0
DWIDTH 14 0
BBX 14 25 0 -5
BITMAP
0000
e000
e000
e000
e000
e000
e000
e000
e000
e000
e000
e000
e000
e000
e000
e000
e000
ffe0
ffe0
ffe0
0000
0000
0000
0000
0000
ENDCHAR
STARTCHAR M
ENCODING 77
SWIDTH 875 0
DWIDTH 21 0
BBX 21 25 0 -5
BITMAP
000000
e001c0
e001c0
f003c0
f003c0
f003c0
f807c0
f807c0
fc0fc0
fc0fc0
fc0fc0
ee1dc0
ee1dc0
e739c0
e739c0
e3f1c0
e3f1c0
e1e1c0
e1e1c0
e0c1c0
000000
000000
000000
000000
000000
ENDCHAR
STARTCHAR N
ENCODING 78
SWIDTH 708 0
DWIDTH 17 0
BBX 17 25 0 -5
BITMAP
0000
f01c
f81c
fc1c
fc1c
ee1c
ee1c
e71c
e71c
e39c
e39c
e1dc
e1dc
e0dc
e0fc
e07c
e07c
e03c
e03c
e01c
0000
0000
0000
0000
0000
ENDCHAR
STARTCHAR O
ENCODING 79
SWIDTH 708 0
DWIDTH 17 0
BBX 17 25 0 -5
BITMAP
0000
07c0
1ff0
3ff8
3838
701c
701c
e00e
e00e
e00e
e00e
e00e
e00e
e00e
e00e
701c
701c
3838
3ff8
1ff0
07c0
0000
0000
0000
0000
ENDCHAR
STARTCHAR P
ENCODING 80
SWIDTH 666 0
DWIDTH 16 0
BBX 16 25 0 -5
BITMAP
0000
ffe0
fff0
fff0
e078
e038
e038
e038
e078
fff0
fff0
ffc0
e000
e000
e000
e000
e000
e000
e000
e000
0000
0000
0000
0000
0000
ENDCHAR
STARTCHAR Q
ENCODING 81
SWIDTH 708 0
DWIDTH 17 0
BBX 17 25 0 -5
BITMAP
0000
07c0
1ff0
3ff8
3838
701c
f01e
e00e
e00e
e00e
e00e
e00e
e00e
e00e
e00e
f01e
701c
3838
3ff8
1ff0
07c0
00e0
00fc
003c
0000
ENDCHAR
STARTCHAR R
ENCODING 82
SWIDTH 666 0
DWIDTH 16 0
BBX 16 25 0 -5
BITMAP
0000
ffe0
fff0
fff0
e078
e038
e038
e038
e078
fff0
fff0
ffc0
e380
e380
e1c0
e1e0
e0e0
e070
e070
e038
0000
0000
0000
0000
0000
ENDCHAR
STARTCHAR S
ENCODING 83
SWIDTH 666 0
DWIDTH 16 0
BBX 16 25 0 -5
BITMAP
0000
0f00
3fc0
7fe0
f1f0
e0f0
e000
e000
f000
7f00
3fc0
1fe0
01f0
00f0
0070
0070
e070
f0f0
7fe0
3fc0
0f00
0000
0000
0000
0000
ENDCHAR
STARTCHAR T
ENCODING 84
SWIDTH 625 0
DWIDTH 15 0
BBX 15 25 0 -5
BITMAP
0000
fff8
fff8
fff8
0700
0700
0700
0700
0700
0700
0700
0700
0700
0700
0700
0700
0700
0700
0700
0700
0000
0000
0000
0000
0000
ENDCHAR
STARTCHAR U
ENCODING 85
SWIDTH 708 0
DWIDTH 17 0
BBX 17 25 0 -5
BITMAP
0000
e01c
e01c
e01c
e01c
e01c
e01c
e01c
e01c
e01c
e01c
e01c
e01c
e01c
e01c
f03c
f87c
7ff8
7ff8
3ff0
0000
0000
0000
0000
0000
ENDCHAR
STARTCHAR V
ENCODING 86
SWIDTH 708 0
DWIDTH 17 0
BBX 17 25 0 -5
BITMAP
0000
e00e
f01e
f01e
701c
783c
3838
3838
3c78
1c70
1c70
1ef0
0ee0
0ee0
0fe0
07c0
07c0
07c0
0380
0380
0000
0000
0000
0000
0000
ENDCHAR
STARTCHAR W
ENCODING 87
SWIDTH 958 0
DWIDTH 23 0
BBX 23 25 0 -5
BITMAP
000000
e0f838
e0f838
e0f838
e0f838
f1fc78
71dc70
71dc70
71dc70
7bdef0
3b8ee0
3b8ee0
3b8ee0
3f8fe0
1f07c0
1f07c0
1f07c0
1f07c0
0e0380
0e0380
000000
000000
000000
000000
000000
ENDCHAR
STARTCHAR X
ENCODING 88
SWIDTH 666 0
DWIDTH 16 0
BBX 16 25 0 -5
BITMAP
0000
e038
e038
f078
78f0
38e0
3de0
1dc0
0f80
0f80
0700
0f80
0f80
1dc0
3de0
38e0
78f0
f078
e038
e038
0000
0000
0000
0000
0000
ENDCHAR
STARTCHAR Y
ENCODING 89
SWIDTH 708 0
DWIDTH 17 0
BBX 17 25 0 -5
BITMAP
0000
0000
f01e
f01e
783c
783c
3c78
3c78
1ef0
0ee0
0fe0
07c0
07c0
0380
0380
0380
0380
0380
0380
0380
0000
0000
0000
0000
0000
ENDCHAR
STARTCHAR Z
ENCODING 90
SWIDTH 625 0
DWIDTH 15 0
BBX 15 25 0 -5
BITMAP
0000
fff0
fff0
fff0
00f0
00e0
01c0
01c0
0380
0380
0700
0700
0e00
0e00
1c00
3c00
3800
3ff0
fff0
fff0
0000
0000
0000
0000
0000
ENDCHAR
STARTCHAR [
ENCODING 91
SWIDTH 416 0
DWIDTH 10 0
BBX 10 25 0 -5
BITMAP
fe
fe
fe
f0
e0
e0
e0
e0
e0
e0
e0
e0
e0
e0
e0
e0
e0
e0
e0
e0
e0
f0
fe
fe
fe
ENDCHAR
STARTCHAR \
ENCODING 92
SWIDTH 583 0
DWIDTH 14 0
BBX 14 25 0 -5
BITMAP
e000
f000
7000
7000
7800
3800
3800
3c00
1c00
1c00
1e00
0e00
0e00
0f00
0700
0700
0780
0380
0380
03c0
01c0
01c0
01e0
00e0
00e0
ENDCHAR
STARTCHAR ]
ENCODING 93
SWIDTH 416 0
DWIDTH 10 0
BBX 10 25 0 -5
BITMAP
fe
fe
fe
1e
0e
0e
0e
0e
0e
0e
0e
0e
0e
0e
0e
0e
0e
0e
0e
0e
0e
1e
fe
fe
fe
ENDCHAR
STARTCHAR _
ENCODING 95
SWIDTH 500 0
DWIDTH 12 0
BBX 12 25 0 -5
BITMAP
0000
0000
0000
0000
0000
0000
0000
0000
0000
0000
0000
0000
0000
0000
0000
0000
0000
0000
0000
0000
fff0
fff0
fff0
0000
0000
ENDCHAR
STARTCHAR `
ENCODING 96
SWIDTH 291 0
DWIDTH 7 0
BBX 7 25 0 -5
BITMAP
f0
f0
f0
f0
e0
e0
60
70
30
00
00
00
00
00
00
00
00
00
00
00
00
00
00
00
00
ENDCHAR
STARTCHAR a
ENCODING 97
SWIDTH 541 0
DWIDTH 13 0
BBX 13 25 0 -5
BITMAP
0000
0000
0000
0000
0000
0000
0000
3f00
7fc0
f3c0
01c0
0fc0
3fc0
ffc0
f9c0
e0c0
f1c0
ffc0
ffc0
3dc0
0000
0000
0000
0000
0000
ENDCHAR
STARTCHAR b
ENCODING 98
SWIDTH 625 0
DWIDTH 15 0
BBX 15 25 0 -5
BITMAP
0000
e000
e000
e000
e000
e000
e000
ef80
ffc0
ffe0
f0f0
e070
e070
e070
e070
e070
f0f0
ffe0
ffc0
ef80
0000
0000
0000
0000
0000
ENDCHAR
STARTCHAR c
ENCODING 99
SWIDTH 500 0
DWIDTH 12 0
BBX 12 25 0 -5
BITMAP
0000
0000
0000
0000
0000
0000
0000
1f00
3f80
7fc0
f9c0
f000
e000
e000
e000
f000
f9c0
7fc0
3f80
1f00
0000
0000
0000
0000
0000
ENDCHAR
STARTCHAR d
ENCODING 100
SWIDTH 583 0
DWIDTH 14 0
BBX 14 25 0 -5
BITMAP
0000
0070
0070
0070
0070
0070
0070
1f70
3ff0
7ff0
70f0
e070
e070
e070
e070
e070
70f0
7ff0
3ff0
1f30
0000
0000
0000
0000
0000
ENDCHAR
STARTCHAR e
ENCODING 101
SWIDTH 625 0
DWIDTH 15 0
BBX 15 25 0 -5
BITMAP
0000
0000
0000
0000
0000
0000
0000
0fc0
3fe0
3ff0
7870
7038
fff8
fff8
fff8
f000
7878
7ff0
3ff0
0fc0
0000
0000
0000
0000
0000
ENDCHAR
STARTCHAR f
ENCODING 102
SWIDTH 375 0
DWIDTH 9 0
BBX 9 25 0 -5
BITMAP
00
0e
1e
1e
38
38
38
fe
fe
fe
38
38
38
38
38
38
38
38
38
38
00
00
00
00
00
ENDCHAR
STARTCHAR g
ENCODING 103
SWIDTH 625 0
DWIDTH 15 0
BBX 15 25 0 -5
BITMAP
0000
0000
0000
0000
0000
0000
0000
1f70
7ff0
ffc0
f3c0
e1c0
f3c0
7fc0
7f80
3f00
e000
6000
3fe0
fff0
e7f0
c070
f0f0
ffe0
7fc0
ENDCHAR
STARTCHAR h
ENCODING 104
SWIDTH 583 0
DWIDTH 14 0
BBX 14 25 0 -5
BITMAP
0000
e000
e000
e000
e000
e000
e000
ef80
ffc0
ffe0
f1e0
e0e0
e0e0
e0e0
e0e0
e0e0
e0e0
e0e0
e0e0
e0e0
0000
0000
0000
0000
0000
ENDCHAR
STARTCHAR i
ENCODING 105
SWIDTH 291 0
DWIDTH 7 0
BBX 7 25 0 -5
BITMAP
00
e0
e0
e0
00
00
00
e0
e0
e0
e0
e0
e0
e0
e0
e0
e0
e0
e0
e0
00
00
00
00
00
ENDCHAR
STARTCHAR j
ENCODING 106
SWIDTH 375 0
DWIDTH 9 0
BBX 9 25 0 -5
BITMAP
00
1c
1c
1c
00
00
00
1c
1c
1c
1c
1c
1c
1c
1c
1c
1c
1c
1c
1c
1c
3c
fc
f8
f0
ENDCHAR
STARTCHAR k
ENCODING 107
SWIDTH 541 0
DWIDTH 13 0
BBX 13 25 0 -5
BITMAP
0000
0000
e000
e000
e000
e000
e180
e380
e780
ef00
fe00
fc00
fe00
ff00
e780
e380
e1c0
e1e0
e0e0
e060
0000
0000
0000
0000
0000
ENDCHAR
STARTCHAR l
ENCODING 108
SWIDTH 291 0
DWIDTH 7 0
BBX 7 25 0 -5
BITMAP
00
e0
e0
e0
e0
e0
e0
e0
e0
e0
e0
e0
e0
e0
e0
e0
e0
e0
e0
e0
00
00
00
00
00
ENDCHAR
STARTCHAR m
ENCODING 109
SWIDTH 833 0
DWIDTH 20 0
BBX 20 25 0 -5
BITMAP
000000
000000
000000
000000
000000
000000
000000
e60c00
ef3e00
ffbf00
fbf780
f1e380
e1c380
e1c380
e1c380
e1c380
e1c380
e1c380
e1c380
e1c380
000000
000000
000000
000000
000000
ENDCHAR
STARTCHAR n
ENCODING 110
SWIDTH 583 0
DWIDTH 14 0
BBX 14 25 0 -5
BITMAP
0000
0000
0000
0000
0000
0000
0000
e780
efc0
ffc0
f9e0
f0e0
e0e0
e0e0
e0e0
e0e0
e0e0
e0e0
e0e0
e0e0
0000
0000
0000
0000
0000
ENDCHAR
STARTCHAR o
ENCODING 111
SWIDTH 583 0
DWIDTH 14 0
BBX 14 25 0 -5
BITMAP
0000
0000
0000
0000
0000
0000
0f00
3fc0
7fe0
79e0
f0f0
e070
e070
e070
e070
f0f0
f9f0
7fe0
3fc0
0f00
0000
0000
0000
0000
0000
ENDCHAR
STARTCHAR p
ENCODING 112
SWIDTH 625 0
DWIDTH 15 0
BBX 15 25 0 -5
BITMAP
0000
0000
0000
0000
0000
0000
0000
ef00
ffc0
ffe0
f9e0
f0f0
e070
e070
e070
f0f0
f9f0
ffe0
ffc0
ef00
e000
e000
e000
e000
e000
ENDCHAR
STARTCHAR q
ENCODING 113
SWIDTH 583 0
DWIDTH 14 0
BBX 14 25 0 -5
BITMAP
0000
0000
0000
0000
0000
0000
0000
0f70
3ff0
7ff0
79f0
f0f0
e070
e070
e070
f0f0
f9f0
7ff0
3ff0
0f70
0070
0070
0070
0070
0070
ENDCHAR
STARTCHAR r
ENCODING 114
SWIDTH 500 0
DWIDTH 12 0
BBX 12 25 0 -5
BITMAP
0000
0000
0000
0000
0000
0000
0000
e380
ef80
ef80
fe00
f800
f000
e000
e000
e000
e000
e000
e000
e000
0000
0000
0000
0000
0000
ENDCHAR
STARTCHAR s
ENCODING 115
SWIDTH 500 0
DWIDTH 12 0
BBX 12 25 0 -5
BITMAP
0000
0000
0000
0000
0000
0000
0000
3f00
7f80
ffc0
f1c0
e000
f000
7f00
1f80
03c0
e1c0
f3c0
7f80
3f00
0000
0000
0000
0000
0000
ENDCHAR
STARTCHAR t
ENCODING 116
SWIDTH 375 0
DWIDTH 9 0
BBX 9 25 0 -5
BITMAP
00
38
38
38
38
38
fe
fe
fe
38
38
38
38
38
38
38
38
3c
3e
1e
00
00
00
00
00
ENDCHAR
STARTCHAR u
ENCODING 117
SWIDTH 583 0
DWIDTH 14 0
BBX 14 25 0 -5
BITMAP
0000
0000
0000
0000
0000
0000
0000
e0e0
e0e0
e0e0
e0e0
e0e0
e0e0
e0e0
e0e0
e0e0
f1e0
ffe0
7fe0
3f60
0000
0000
0000
0000
0000
ENDCHAR
STARTCHAR v
ENCODING 118
SWIDTH 583 0
DWIDTH 14 0
BBX 14 25 0 -5
BITMAP
0000
0000
0000
0000
0000
0000
0000
e070
e070
e070
70e0
70e0
39c0
39c0
1f80
1f80
0f00
0f00
0600
0600
0000
0000
0000
0000
0000
ENDCHAR
STARTCHAR w
ENCODING 119
SWIDTH 833 0
DWIDTH 20 0
BBX 20 25 0 -5
BITMAP
000000
000000
000000
000000
000000
000000
000000
e0c1c0
e0c1c0
f1e3c0
71e380
79e780
39e700
3bf700
3bf700
1f3e00
1f3e00
1f3e00
0e1c00
0e1c00
000000
000000
000000
000000
000000
ENDCHAR
STARTCHAR x
ENCODING 120
SWIDTH 541 0
DWIDTH 13 0
BBX 13 25 0 -5
BITMAP
0000
0000
0000
0000
0000
0000
0000
e0e0
f1e0
71c0
3b80
3b80
1f00
0e00
1f00
3b80
3b80
71c0
f1e0
e0e0
0000
0000
0000
0000
0000
ENDCHAR
STARTCHAR y
ENCODING 121
SWIDTH 625 0
DWIDTH 15 0
BBX 15 25 0 -5
BITMAP
0000
0000
0000
0000
0000
0000
0000
e038
e038
7070
7070
38e0
38e0
1dc0
1dc0
0f80
0f80
0700
0700
0e00
0e00
1c00
7c00
7800
7000
ENDCHAR
STARTCHAR z
ENCODING 122
SWIDTH 541 0
DWIDTH 13 0
BBX 13 25 0 -5
BITMAP
0000
0000
0000
0000
0000
0000
0000
ffe0
ffe0
ffe0
01e0
03c0
0780
0f00
1e00
3c00
7800
ffe0
ffe0
ffe0
0000
0000
0000
0000
0000
ENDCHAR
STARTCHAR {
ENCODING 123
SWIDTH 458 0
DWIDTH 11 0
BBX 11 25 0 -5
BITMAP
0f
1e
38
38
38
3c
1c
1c
1c
18
30
70
f0
70
30
18
1c
1c
1c
3c
38
38
38
1e
0f
ENDCHAR
STARTCHAR |
ENCODING 124
SWIDTH 250 0
DWIDTH 6 0
BBX 6 25 0 -5
BITMAP
e0
e0
e0
e0
e0
e0
e0
e0
e0
e0
e0
e0
e0
e0
e0
e0
e0
e0
e0
e0
e0
e0
e0
e0
e0
ENDCHAR
STARTCHAR }
ENCODING 125
SWIDTH 458 0
DWIDTH 11 0
BBX 11 25 0 -5
BITMAP
f0
78
1c
1c
1c
3c
38
38
38
18
0c
0e
0f
0e
0c
18
38
38
38
3c
1c
1c
1c
78
f0
ENDCHAR
STARTCHAR ~
ENCODING 126
SWIDTH 666 0
DWIDTH 16 0
BBX 16 25 0 -5
BITMAP
0000
0000
0000
0000
0000
0000
0000
0000
1c0c
3e0c
7f1c
7fb8
f7f8
e3f0
c1e0
0000
0000
0000
0000
0000
0000
0000
0000
0000
0000
ENDCHAR
ENDFONT
